<?xml version="1.0" encoding="UTF-8"?>
<!DOCTYPE svg PUBLIC "-//W3C//DTD SVG 1.1//EN" "http://www.w3.org/Graphics/SVG/1.1/DTD/svg11.dtd">
<!-- Creator: CorelDRAW 2021.5 -->
<svg xmlns="http://www.w3.org/2000/svg" xml:space="preserve" width="3113px" height="578px" version="1.1" style="shape-rendering:geometricPrecision; text-rendering:geometricPrecision; image-rendering:optimizeQuality; fill-rule:evenodd; clip-rule:evenodd"
viewBox="0 0 3100.08 576.14"
 xmlns:xlink="http://www.w3.org/1999/xlink"
 xmlns:xodm="http://www.corel.com/coreldraw/odm/2003">
 <defs>
  <style type="text/css">
   <![CDATA[
    .str2 {stroke:white;stroke-width:1.99;stroke-miterlimit:22.9256}
    .str1 {stroke:#CCCCCC;stroke-width:15.94;stroke-miterlimit:22.9256}
    .str0 {stroke:white;stroke-width:15.94;stroke-miterlimit:22.9256}
    .fil4 {fill:none}
    .fil2 {fill:#CCCCCC}
    .fil5 {fill:white}
    .fil3 {fill:#B3B3B3;fill-rule:nonzero}
    .fil1 {fill:#E6E6E6;fill-rule:nonzero}
    .fil0 {fill:white;fill-rule:nonzero}
   ]]>
  </style>
 </defs>
 <g id="Capa_x0020_1">
  <metadata id="CorelCorpID_0Corel-Layer"/>
  <path class="fil0 str0" d="M869.91 171.52c2.4,1.87 3.6,4 3.6,6.4 0,2.14 -0.54,3.87 -1.6,5.2 -1.6,2.14 -3.6,3.2 -6,3.2 -1.07,0 -2.67,-0.53 -4.8,-1.6 -24.8,-16.8 -51.07,-25.2 -78.8,-25.2 -22.4,0 -43,5.53 -61.8,16.6 -18.8,11.07 -33.67,26.4 -44.6,46 -10.93,19.6 -16.4,41.67 -16.4,66.2 0,24.53 5.47,46.6 16.4,66.2 10.93,19.6 25.8,34.93 44.6,46 18.8,11.07 39.4,16.6 61.8,16.6 28,0 54.13,-8.27 78.4,-24.8 1.33,-1.07 2.93,-1.6 4.8,-1.6 2.66,0 4.8,1.07 6.4,3.2 1.06,1.33 1.6,2.93 1.6,4.8 0,2.67 -1.07,4.8 -3.2,6.4 -10.4,7.47 -23.8,13.87 -40.2,19.2 -16.4,5.33 -32.34,8 -47.8,8 -25.34,0 -48.67,-6.27 -70,-18.8 -21.34,-12.53 -38.27,-29.8 -50.8,-51.8 -12.54,-22 -18.8,-46.47 -18.8,-73.4 0,-26.93 6.26,-51.4 18.8,-73.4 12.53,-22 29.46,-39.26 50.8,-51.8 21.33,-12.53 44.66,-18.8 70,-18.8 16,0 31.53,2.4 46.6,7.2 15.06,4.8 28.73,11.47 41,20zm304.79 116.8c0,28 -5.66,52.93 -17,74.8 -11.33,21.87 -27.13,38.87 -47.4,51 -20.26,12.13 -43.33,18.2 -69.19,18.2 -25.87,0 -48.94,-6.07 -69.2,-18.2 -20.27,-12.13 -36.07,-29.13 -47.4,-51 -11.34,-21.87 -17,-46.8 -17,-74.8 0,-28 5.66,-52.93 17,-74.8 11.33,-21.87 27.13,-38.86 47.4,-51 20.26,-12.13 43.33,-18.2 69.2,-18.2 25.86,0 48.93,6.07 69.19,18.2 20.27,12.14 36.07,29.13 47.4,51 11.34,21.87 17,46.8 17,74.8zm-16.8 0c0,-25.07 -4.93,-47.33 -14.8,-66.8 -9.86,-19.46 -23.66,-34.53 -41.4,-45.2 -17.73,-10.66 -37.93,-16 -60.59,-16 -22.67,0 -42.87,5.34 -60.6,16 -17.74,10.67 -31.54,25.74 -41.4,45.2 -9.87,19.47 -14.8,41.73 -14.8,66.8 0,25.07 4.93,47.33 14.8,66.8 9.86,19.47 23.66,34.53 41.4,45.2 17.73,10.67 37.93,16 60.6,16 22.66,0 42.86,-5.33 60.59,-16 17.74,-10.67 31.54,-25.73 41.4,-45.2 9.87,-19.47 14.8,-41.73 14.8,-66.8zm188.8 -140c25.6,0 47.13,6.4 64.6,19.2 17.47,12.8 30.4,29.8 38.8,51 8.4,21.2 12.6,44.47 12.6,69.8 0,26.4 -4.2,50.13 -12.6,71.2 -8.4,21.07 -21.27,37.8 -38.6,50.2 -17.33,12.4 -38.93,18.6 -64.8,18.6l-104 0c-2.13,0 -4,-0.8 -5.6,-2.4 -1.6,-1.6 -2.4,-3.47 -2.4,-5.6l0 -264c0,-2.13 0.8,-4 2.4,-5.6 1.6,-1.6 3.47,-2.4 5.6,-2.4l104 0zm-4 264c34.67,0 60.54,-11.4 77.6,-34.2 17.07,-22.8 25.6,-52.73 25.6,-89.8 0,-22.67 -3.67,-43.4 -11,-62.2 -7.33,-18.8 -18.67,-33.8 -34,-45 -15.33,-11.2 -34.73,-16.8 -58.2,-16.8l-91.2 0 0 248 91.2 0zm338.8 0c2.13,0 4,0.8 5.6,2.4 1.6,1.6 2.4,3.46 2.4,5.6 0,2.4 -0.8,4.33 -2.4,5.8 -1.6,1.46 -3.47,2.2 -5.6,2.2l-150.8 0c-2.13,0 -4,-0.8 -5.6,-2.4 -1.6,-1.6 -2.4,-3.47 -2.4,-5.6l0 -264c0,-2.13 0.8,-4 2.4,-5.6 1.6,-1.6 3.47,-2.4 5.6,-2.4l150.8 0c2.13,0 4,0.8 5.6,2.4 1.6,1.6 2.4,3.47 2.4,5.6 0,2.4 -0.8,4.33 -2.4,5.8 -1.6,1.47 -3.47,2.2 -5.6,2.2l-142 0 0 111.6 124 0c2.13,0 4,0.8 5.6,2.4 1.6,1.6 2.4,3.47 2.4,5.6 0,2.4 -0.8,4.33 -2.4,5.8 -1.6,1.47 -3.47,2.2 -5.6,2.2l-124 0 0 120.4 142 0z"/>
  <path class="fil1 str1" d="M1949.1 148.32c2.4,0 4.4,0.8 6,2.4 1.6,1.6 2.4,3.6 2.4,6l0 263.2c-0.27,2.4 -1.2,4.4 -2.8,6 -1.6,1.6 -3.47,2.4 -5.6,2.4 -2.67,0 -4.74,-0.8 -6.2,-2.4 -1.47,-1.6 -2.2,-3.6 -2.2,-6l0 -127.6 -174.4 0 0 127.6c-0.27,2.4 -1.2,4.4 -2.8,6 -1.6,1.6 -3.47,2.4 -5.6,2.4 -2.67,0 -4.74,-0.8 -6.2,-2.4 -1.47,-1.6 -2.2,-3.6 -2.2,-6l0 -263.2c0,-2.4 0.8,-4.4 2.4,-6 1.6,-1.6 3.6,-2.4 6,-2.4 2.4,0 4.4,0.8 6,2.4 1.6,1.6 2.4,3.6 2.4,6l0 119.6 174.4 0 0 -119.6c0,-2.4 0.8,-4.4 2.4,-6 1.6,-1.6 3.6,-2.4 6,-2.4zm105.2 271.6c-0.27,2.4 -1.21,4.4 -2.81,6 -1.6,1.6 -3.46,2.4 -5.59,2.4 -2.67,0 -4.74,-0.8 -6.2,-2.4 -1.47,-1.6 -2.2,-3.6 -2.2,-6l0 -263.2c0,-2.4 0.79,-4.4 2.39,-6 1.61,-1.6 3.61,-2.4 6.01,-2.4 2.4,0 4.4,0.8 6,2.4 1.6,1.6 2.4,3.6 2.4,6l0 263.2zm283.59 -129.6c2.4,0 4.33,0.8 5.8,2.4 1.47,1.6 2.2,3.47 2.2,5.6l0 100.4c0,3.2 -1.2,5.6 -3.6,7.2 -12.26,8.27 -25.66,14.73 -40.2,19.4 -14.53,4.67 -29.26,7 -44.2,7 -27.46,0 -52.06,-6.2 -73.8,-18.6 -21.73,-12.4 -38.8,-29.53 -51.2,-51.4 -12.39,-21.87 -18.6,-46.53 -18.6,-74 0,-27.47 6.21,-52.13 18.6,-74 12.4,-21.87 29.47,-39 51.2,-51.4 21.74,-12.4 46.34,-18.6 73.8,-18.6 14.94,0 29.14,1.8 42.6,5.4 13.47,3.6 25.53,9 36.2,16.2 2.4,1.6 3.6,3.87 3.6,6.8 0,2.4 -0.86,4.33 -2.6,5.8 -1.73,1.47 -3.4,2.2 -5,2.2 -1.33,0 -3.06,-0.53 -5.2,-1.6 -22.4,-12.53 -45.6,-18.8 -69.6,-18.8 -24.53,0 -46.4,5.47 -65.6,16.4 -19.2,10.93 -34.2,26.13 -45,45.6 -10.8,19.47 -16.2,41.47 -16.2,66 0,24.53 5.4,46.53 16.2,66 10.8,19.47 25.8,34.67 45,45.6 19.2,10.93 41.07,16.4 65.6,16.4 12.27,0 24.74,-1.94 37.4,-5.8 12.67,-3.87 24.2,-9 34.6,-15.4l0 -88.8 -72 0c-2.13,0 -4,-0.8 -5.6,-2.4 -1.6,-1.6 -2.4,-3.47 -2.4,-5.6 0,-2.4 0.8,-4.33 2.4,-5.8 1.6,-1.47 3.47,-2.2 5.6,-2.2l80 0zm277.6 0c2.4,0 4.33,0.8 5.8,2.4 1.47,1.6 2.2,3.47 2.2,5.6l0 100.4c0,3.2 -1.2,5.6 -3.6,7.2 -12.27,8.27 -25.67,14.73 -40.2,19.4 -14.53,4.67 -29.27,7 -44.2,7 -27.47,0 -52.07,-6.2 -73.8,-18.6 -21.73,-12.4 -38.8,-29.53 -51.2,-51.4 -12.4,-21.87 -18.6,-46.53 -18.6,-74 0,-27.47 6.2,-52.13 18.6,-74 12.4,-21.87 29.47,-39 51.2,-51.4 21.73,-12.4 46.33,-18.6 73.8,-18.6 14.93,0 29.13,1.8 42.6,5.4 13.47,3.6 25.53,9 36.2,16.2 2.4,1.6 3.6,3.87 3.6,6.8 0,2.4 -0.87,4.33 -2.6,5.8 -1.73,1.47 -3.4,2.2 -5,2.2 -1.33,0 -3.07,-0.53 -5.2,-1.6 -22.4,-12.53 -45.6,-18.8 -69.6,-18.8 -24.53,0 -46.4,5.47 -65.6,16.4 -19.2,10.93 -34.2,26.13 -45,45.6 -10.8,19.47 -16.2,41.47 -16.2,66 0,24.53 5.4,46.53 16.2,66 10.8,19.47 25.8,34.67 45,45.6 19.2,10.93 41.07,16.4 65.6,16.4 12.27,0 24.73,-1.94 37.4,-5.8 12.67,-3.87 24.2,-9 34.6,-15.4l0 -88.8 -72 0c-2.13,0 -4,-0.8 -5.6,-2.4 -1.6,-1.6 -2.4,-3.47 -2.4,-5.6 0,-2.4 0.8,-4.33 2.4,-5.8 1.6,-1.47 3.47,-2.2 5.6,-2.2l80 0zm145.6 142c-19.74,0 -36.94,-3.4 -51.6,-10.2 -14.67,-6.8 -29.2,-17.4 -43.6,-31.8 -1.6,-1.6 -2.4,-3.6 -2.4,-6 0,-2.13 0.93,-4.2 2.8,-6.2 1.86,-2 3.87,-3 6,-3 2.4,0 4.66,1.2 6.8,3.6 10.4,12.27 22.73,21.6 37,28 14.26,6.4 29.26,9.6 45,9.6 20.53,0 37.46,-4.93 50.8,-14.8 13.33,-9.87 20,-22.94 20,-39.2 -0.27,-12.8 -3.74,-23.33 -10.4,-31.6 -6.67,-8.27 -14.87,-14.87 -24.6,-19.8 -9.74,-4.93 -23,-10.47 -39.8,-16.6 -18.4,-6.93 -32.74,-13.07 -43,-18.4 -10.27,-5.33 -19.07,-12.93 -26.4,-22.8 -7.34,-9.86 -11,-22.8 -11,-38.8 0,-13.07 3.6,-24.93 10.8,-35.6 7.2,-10.67 17.46,-19.07 30.8,-25.2 13.33,-6.13 28.8,-9.2 46.4,-9.2 15.73,0 30.66,2.87 44.8,8.6 14.13,5.73 25.33,13.8 33.6,24.2 2.66,3.73 4,6.54 4,8.4 0,2.13 -1,4.07 -3,5.8 -2,1.74 -4.2,2.6 -6.6,2.6 -2.14,0 -3.87,-0.8 -5.2,-2.4 -7.47,-9.6 -17.07,-17.2 -28.8,-22.8 -11.74,-5.6 -24.67,-8.4 -38.8,-8.4 -20.27,0 -37.14,4.8 -50.6,14.4 -13.47,9.6 -20.2,22.67 -20.2,39.2 0,11.47 3.26,21.2 9.8,29.2 6.53,8 14.73,14.47 24.6,19.4 9.86,4.93 22.13,10.07 36.8,15.4 18.66,6.67 33.46,12.8 44.4,18.4 10.93,5.6 20.26,13.73 28,24.4 7.73,10.67 11.6,24.8 11.6,42.4 0,12.27 -3.6,23.73 -10.8,34.4 -7.2,10.67 -17.54,19.13 -31,25.4 -13.47,6.26 -28.87,9.4 -46.2,9.4z"/>
  <rect class="fil2 str1" x="1042.01" y="276.32" width="853.8" height="15.51"/>
  <path class="fil3" d="M2904.83 239.29l47.28 -123.24 17.93 0 50.17 123.24 -18.56 0 -14.26 -37.35 -51.89 0 -13.37 37.35 -17.3 0zm35.46 -50.61l42 0 -12.85 -34.16c-3.88,-10.39 -6.8,-18.96 -8.84,-25.73 -1.69,8.03 -3.96,15.92 -6.8,23.72l-13.51 36.17z"/>
  <polygon id="_1" class="fil3" points="3035.56,239.29 3035.56,222.08 3052.77,222.08 3052.77,239.29 "/>
  <polygon id="_2" class="fil3" points="3083.72,239.29 3083.72,116.05 3100.08,116.05 3100.08,239.29 "/>
  <path class="fil4 str2" d="M281.49 575.15c-8.59,0 -18.32,-2.78 -26.71,-8.06 -7.48,-4.93 -12.65,-10.97 -15.16,-16.98 -11.29,-3.54 -11.29,-3.54 -21.95,-6.97l0 0c-10.48,-3.65 -10.48,-3.65 -20.76,-7.52 -0.21,1.6 -0.89,2.86 -1.8,3.98 -1.87,2.58 -4.91,3.81 -8.64,3.81 -6.68,0 -15.54,-3.96 -23.67,-11.02 -12.33,-11.43 -19.05,-26.79 -15.19,-35.14 0.67,-1.26 1.55,-2.32 2.61,-3.12 -5.6,-10.19 -5.6,-10.19 -10.95,-20.42l0.01 0c-5.39,-10.75 -5.39,-10.75 -10.4,-21.31 -5.07,-0.85 -10.7,-4.47 -15.76,-10.46 -4.96,-6.14 -8.55,-13.6 -10.51,-21.07l-0.17 -0.09c-1.49,-5.84 -2.45,-14.35 0.71,-23.12 2.49,-5.55 6.69,-8.43 11.6,-8.43 3.3,0 6.92,1.3 10.57,3.95 4.2,-9.07 4.2,-9.07 8.76,-18.35 4.92,-9.44 4.92,-9.44 10.13,-19.44 -7.02,-12.86 -7.48,-30.54 -0.28,-43.42 1.37,-2.55 2.93,-4.57 4.63,-6.33 -3.38,-12.39 -3.38,-12.39 -6.54,-24.25 -0.01,0 -0.01,0 0.01,-0.25 -1.97,-7.64 -1.97,-7.64 -3.77,-15.47 -4.18,3.25 -8.61,4.95 -12.78,4.95 -4.39,0 -8.49,-1.88 -11.72,-5.8 -4.77,-6.06 -6.45,-15.53 -5.12,-25.53 0.13,-0.83 2.27,-14.1 9.67,-24l0.06 0c5.81,-7.45 13.06,-11.72 19.62,-11.72 0.83,0 1.63,0.07 2.43,0.19 2.63,0.5 8.27,2.42 11.8,9.81l-0.02 0.05c4.62,9.52 4.05,23.64 -1.85,36.17 2.76,11.47 2.76,11.47 5.75,23.19l-0.01 0c3.33,12.18 3.33,12.18 6.91,24.5 1.22,-0.19 2.46,-0.29 3.7,-0.29 6.18,0 12.48,2.52 17.93,7.74 6.74,6.26 10.87,15.34 12.1,25.16 12.13,2.05 12.13,2.05 24.72,4.29l0 0c12.71,2.13 12.71,2.13 25.8,4.28 6.96,-6.81 16.08,-10.31 25.45,-10.31 4.99,0 10.04,1 14.87,3 14.27,-18.84 14.27,-18.84 28.87,-37.91 9.34,-12.03 9.34,-12.03 18.72,-24.06 -10.39,-14.35 -10.24,-34.25 1.56,-48.85 1.05,-1.28 2.16,-2.48 3.31,-3.62l0.01 -0.02 0.03 -0.02 0.01 0 0.05 -0.07c1.05,-0.99 10.87,-10.12 24.74,-11.63l0.06 0.14c1.49,-0.14 2.99,-0.23 4.48,-0.23 8.79,0 17.61,2.7 25.07,8.27 8.84,6.58 14.21,15.98 15.85,25.96l0.08 0.02c1.02,6.09 0.92,14 -2.95,22.41l-0.13 -0.02c-0.81,1.88 -1.78,3.72 -2.92,5.48l-0.04 0.09c-0.67,1.03 -1.39,2.05 -2.17,3.04 -8.27,10.56 -20.69,16.11 -33.24,16.11 -5.27,0 -10.57,-0.99 -15.59,-2.98 -9.44,12.11 -9.44,12.11 -18.86,24.24 -14.72,19.12 -14.72,19.12 -29.17,38 9.2,12.78 10.74,29.73 3.68,43.4 5.76,13.42 5.76,13.42 11.52,26.65 5.88,13.32 5.88,13.32 11.69,26.34 1.07,-0.08 2.15,-0.12 3.23,-0.12 9.04,0 18.26,2.75 26.03,8.4 8.62,6.21 13.73,14.79 15.27,23.65 14.42,1.72 14.42,1.72 28.68,3.27l0.01 0.04c14.23,1.39 14.23,1.39 28.19,2.63 1.45,-2.59 3.23,-5.11 5.2,-7.45 8.79,-10.09 21.46,-15.47 33.51,-15.47 3.94,0 7.82,0.58 11.47,1.76l0.02 -0.02c6.59,2.26 14.05,7.23 18.52,18.01 2.99,9.92 0.02,21.83 -8.84,31.54 -8.82,9.27 -21.32,14.37 -33.13,14.37 -6.37,0 -12.53,-1.47 -17.8,-4.58 -7.48,-4.61 -11.79,-11.76 -12.8,-19.65 -13.88,-1.11 -13.88,-1.11 -27.76,-2.42l0 0.02c-14.15,-1.51 -14.15,-1.51 -28.29,-3.17 -1.31,2.43 -2.84,4.74 -4.75,6.9 -7.23,7.68 -17.78,11.61 -28.62,11.61 -5.26,0 -10.59,-0.93 -15.64,-2.79 -7.81,8.47 -7.81,8.47 -15.33,16.54 -7.35,7.62 -7.35,7.62 -14.45,14.83 10.01,10.12 11.76,22.38 3.54,29.79 -4.1,3.63 -10.18,5.37 -17,5.37zm-124.85 -206.57c-5.44,9.96 -5.44,9.96 -10.59,19.4 -4.78,9.3 -4.78,9.3 -9.26,18.14 7.78,12.88 10.14,28.85 5.27,38.85 -0.87,1.7 -1.88,3.16 -3.13,4.18 5.3,11.16 5.3,11.16 10.57,21.83 0.01,0 0.01,0 0.16,0.22 5.38,10.42 5.38,10.42 11.03,20.81 6.08,1.12 13.2,4.76 19.91,10.77 6.76,5.88 11.87,13.09 14.59,19.84 10.23,3.62 10.23,3.62 21.05,7.33 11.17,3.6 11.17,3.6 22.47,6.95 0.73,-1.61 1.51,-3.31 2.75,-4.78 4.18,-4.74 11,-7.12 18.79,-7.12 5.81,0 12.17,1.32 18.35,3.99 6.75,-7.47 6.75,-7.47 13.86,-15.32 7.41,-8.26 7.41,-8.26 15,-16.94 -10.51,-12.29 -11.79,-29.21 -1.79,-41.55 1.9,-2.3 4.12,-4.27 6.49,-5.99 -5.96,-12.9 -5.96,-12.9 -11.94,-26.07 -3.9,-8.82 -3.9,-8.82 -7.8,-17.74 -4.94,2.42 -10.37,3.64 -15.89,3.64 -8.78,0 -17.77,-3.08 -25.37,-9.36 -12.13,-10.27 -17.35,-26.05 -14.76,-40.54 -8.66,-1.51 -8.66,-1.51 -17.17,-3.15l-0.02 0.02c-12.49,-2.4 -12.49,-2.4 -24.55,-4.82 -0.99,2.67 -2.22,5.44 -3.77,7.93 -5.44,8.63 -13.45,13 -21.67,13 -4.24,0 -8.54,-1.18 -12.58,-3.52zm284.57 -11.03c-1.62,0 -3.26,-0.13 -4.91,-0.38 -12.28,-1.9 -21.84,-10.56 -25.5,-21.61 -1.84,-5.76 -3.68,-17.09 4.47,-28.72 5.9,-8.14 15.45,-13.26 25.86,-13.26 1.63,0 3.27,0.13 4.92,0.4 2.63,0.39 5.14,1.12 7.49,2.09l29.22 -36.4c-4.6,-6.52 -6.78,-14.77 -5.46,-23.3 1.31,-8.51 5.87,-15.71 12.22,-20.54l-16.89 -43.52c-0.99,0.08 -1.96,0.12 -2.93,0.12 -16.03,0 -29.65,-11.99 -31.68,-27.89l-46.15 -7.13c-5.17,11.17 -16.45,18.54 -28.97,18.54 -1.62,0 -3.26,-0.13 -4.92,-0.37 -5,-0.79 -14.71,-3.86 -21.26,-13.17l0.02 0c-4.71,-6.69 -6.76,-14.97 -5.47,-23.32 2.43,-15.8 16.05,-27.08 31.55,-27.08 1.62,0 3.26,0.12 4.91,0.37 14.41,2.22 25.08,13.75 26.85,27.52l46.14 7.1c2.55,-5.49 6.59,-10.08 11.53,-13.31l-0.02 -0.06c3.66,-2.41 7.83,-4.09 12.28,-4.83l0.04 0.1c1.71,-0.27 3.43,-0.41 5.15,-0.41 5.01,0 9.99,1.18 14.48,3.44l0.08 -0.09c3.99,2.03 7.47,4.87 10.26,8.29l-0.06 0.08c5.55,6.77 8.3,15.78 6.87,25.12 -1.32,8.53 -5.88,15.73 -12.24,20.58l8.44 21.74 0.02 0 8.46 21.76c0.97,-0.08 1.94,-0.12 2.89,-0.12 13.89,0 26.1,8.98 30.37,22.01l24.57 -2.67c1.04,-4.19 3.49,-8.04 7.23,-10.77 3.4,-2.51 7.35,-3.71 11.26,-3.71 5.87,0 11.67,2.72 15.4,7.81 6.23,8.51 4.39,20.44 -4.11,26.65 -3.41,2.5 -7.33,3.68 -11.2,3.68 -6.98,0 -13.78,-3.81 -17.15,-10.56l-24.57 2.7c-0.06,0.56 -0.13,1.11 -0.21,1.69 -2.44,15.8 -16.06,27.11 -31.56,27.11 -1.62,0 -3.26,-0.12 -4.91,-0.38 -2.63,-0.41 -5.13,-1.11 -7.47,-2.11l-14.63 18.23 -0.01 -0.02 -14.61 18.19c4.6,6.53 6.78,14.79 5.47,23.3 -2.44,15.8 -16.05,27.11 -31.56,27.11zm-241.56 -106.64c-3.42,0 -6.9,-0.58 -10.3,-1.78 -15.88,-5.7 -24.13,-23.2 -18.44,-39.05 2.78,-7.77 8.37,-13.69 15.2,-17.09l-3.97 -21.93 -0.02 0 -3.98 -21.95c-2.41,-0.22 -4.84,-0.76 -7.23,-1.63 -15.87,-5.69 -24.13,-23.17 -18.44,-39.05 0.18,-0.52 0.39,-1.04 0.6,-1.53l-19.41 -13.44c-3.18,2.21 -6.82,3.27 -10.41,3.27 -6.76,0 -13.37,-3.73 -16.53,-10.42 -4.29,-9.09 -0.4,-19.94 8.7,-24.24 2.51,-1.19 5.16,-1.76 7.77,-1.76 6.83,0 13.37,3.87 16.48,10.45 1.9,4 2.2,8.35 1.17,12.34l19.4 13.44c5.79,-5.46 13.35,-8.34 21.01,-8.34 5.82,0 11.7,1.67 16.89,5.11l17.02 -14.41 0.01 0 17.01 -14.41c-3.14,-6.96 -3.69,-15.1 -0.91,-22.87.0.04,-8.49 9.47,-14.81 17.21,-17.98l-0.02 -0.08c3.66,-1.51 7.61,-2.3 11.62,-2.3 0.26,0 0.52,0 0.78,0.02l0.02 0.11c6.46,0.19 12.76,2.44 17.86,6.4l0.07 -0.07c3.4,2.65 6.15,5.97 8.12,9.65l-0.05 0.05c7.45,13.78 3.21,30.85 -9.69,39.61 -0.13,0.08 -0.27,0.23 -0.43,0.43 -4.93,3.23 -10.75,5.01 -16.75,5.01 -3.42,0 -6.9,-0.58 -10.3,-1.8 -2.39,-0.87 -4.62,-1.99 -6.64,-3.33l-34.01 28.84c3.13,6.96 3.68,15.07 0.9,22.82 -2.78,7.76 -8.36,13.69 -15.19,17.06l7.94 43.9c2.42,0.23 4.85,0.79 7.24,1.63 11.16,4 18.55,13.82 19.99,24.81 1.54,13.5 -5.17,22.18 -9.34,26.17 -5.63,5.29 -13.14,8.31 -20.95,8.31z"/>
  <path class="fil5" d="M535.65 292.59c6.02,12.26 5.05,32.42 -3.06,50.9 -6.86,15.11 -5.83,0.72 -1.92,29.98l0.02 0.02c0.6,6.27 0.6,6.27 1.01,12.26 24.44,-32.08 29.11,-7.08 5.92,26.94 -10.46,15.36 -14.37,16.75 -21.08,22.44 -0.78,0.67 -5.05,2.42 -6.51,-1.55 -1.63,-4.51 1.28,-14.74 8.25,-27.23 -0.78,-8.26 -0.78,-8.26 -1.99,-17.21l0 0c-1.71,-9.87 -1.71,-9.87 -3.89,-20.6 -17.67,11.66 -32.78,1.24 -34.7,-20.04 -14.46,2.86 -14.46,2.86 -29.88,5.51l0.01 0c-15.98,2.38 -15.98,2.38 -32.86,4.61 -13.23,16.09 -33.58,24.54 -52.61,22.04 -19.63,29.94 -32.49,48.84 -53.72,76.4 18.64,13.27 15.42,34.29 -2.51,45.2l28.09 25.04c10.24,-2.61 20.59,-3.85 28.87,-3.21 21.67,1.3 9.27,12.73 3.33,16.04 -34.97,19.53 -91.98,13.84 -53.06,-5.67 -6.6,-4.82 -6.6,-4.82 -13.92,-10.35l-15.81 -13.5c-20.15,3.14 -47.51,-1.8 -58.18,-19.75l-66.92 -7.48c-4.05,23.94 -42.11,9.75 -57.7,-2.51 -12.83,-10.1 -29.54,-29.84 -19.13,-44.31 -10.01,-13.21 -10.01,-13.21 -19.7,-26.82l0.01 -0.01c-9.52,-14.19 -9.52,-14.19 -18.6,-28.6 -25.08,1.45 -47.79,-43.57 -42.69,-70.65 3.53,-16.81 15.2,-23.85 28.54,-17.75l23.22 -63.83c-10.98,-15.33 -12.53,-39.66 -3.01,-60.24 19.67,-40.75 69.44,-40.46 79.55,2.86 18.87,-1.3 18.87,-1.3 38.53,-2.53l-0.02 -0.02c20.36,-1.12 20.36,-1.12 41.26,-2.11 9.07,-30.31 39.99,-47.21 69.8,-41l38.19 -63.11c-17.36,-14.25 -22.47,-34.29 -11.97,-48.85 16.92,-22.73 69.69,-17.81 89.69,16.44 20.88,3.58 38.58,7.21 59.04,12.59 -0.28,-20.83 21.42,-16.58 38.02,-2.28 25.72,22.16 38.29,64.51 10.98,60.7 -16.71,-2.34 -35.47,-23.49 -42.92,-38.21 -20.69,-4.68 -39.6,-8.38 -60.62,-11.59 -3.06,23.1 -29.94,32.07 -55.4,25.03l-36.44 64.4c22.33,21.64 24.12,57 2.5,80.75l36.5 61.73c37.57,-28.7 88.24,-2.57 81.99,45.2l52.35 -6.89c11.65,-39.35 44.27,-51.96 55.15,-29.18zm-348.12 177.62c17.49,1.53 17.49,1.53 35.55,2.71 5.81,-20 35.7,-29.94 60.72,-25.63l52.96 -78.87c-14.46,-13.67 -19.35,-35.68 -11.65,-56.49l-43.82 -73.07c-31,8.34 -63.2,-9.15 -72.44,-39.8 -21.01,0.62 -21.01,0.62 -41.57,1.49l-38.96 1.8c-7.35,27.54 -31.65,47.79 -56.33,40.69l-24.97 64.85c14.02,18.1 21.45,48.83 9.78,65.25 9.46,15.05 9.46,15.05 19.39,29.94l0.01 0c10.15,14.35 10.15,14.35 20.37,28.03 20.77,-0.14 46.73,16.78 57.22,34.71 16.59,2.38 16.59,2.38 33.74,4.39z"/>
 </g>
</svg>
